<?xml version="1.0" standalone="no"?>
<!DOCTYPE svg PUBLIC "-//W3C//DTD SVG 20010904//EN"
 "http://www.w3.org/TR/2001/REC-SVG-20010904/DTD/svg10.dtd">
<svg version="1.0" xmlns="http://www.w3.org/2000/svg"
 width="400.000000pt" height="400.000000pt" viewBox="0 0 400.000000 400.000000"
 preserveAspectRatio="xMidYMid meet">
<metadata>
Created by potrace 1.14, written by Peter Selinger 2001-2017
</metadata>
<g transform="translate(0.000000,400.000000) scale(0.100000,-0.100000)"
fill="#000000" stroke="none">
<path d="M2773 3598 c2 -27 -7 -41 -48 -81 -27 -27 -49 -49 -47 -50 8 -5 -12
-37 -22 -36 -29 4 -76 -2 -76 -9 0 -4 13 -16 29 -25 28 -16 30 -22 29 -75 0
-31 2 -69 6 -84 5 -21 0 -32 -24 -54 -32 -31 -23 -49 17 -33 21 8 31 2 72 -39
27 -26 56 -52 66 -58 12 -7 19 -24 21 -50 1 -21 2 -40 3 -41 1 -1 13 11 29 26
25 25 33 27 91 25 35 -1 74 1 87 6 13 5 24 6 24 2 0 -4 12 -15 28 -24 l27 -16
-1 39 c0 21 3 39 7 39 11 0 51 39 83 82 15 21 31 37 34 37 4 -1 20 -1 36 0
l29 1 -24 26 c-24 26 -26 37 -30 188 -1 17 5 33 15 38 28 16 19 37 -13 32 -25
-4 -38 3 -78 43 -27 26 -58 53 -68 59 -13 7 -19 20 -17 37 2 32 -1 33 -36 9
-20 -13 -45 -17 -97 -16 -38 0 -73 -3 -76 -8 -4 -6 -18 2 -32 16 -35 34 -46
33 -44 -6z m264 -73 c65 -34 116 -94 130 -155 9 -40 10 -101 2 -106 -5 -3 -7
-9 -4 -14 7 -12 -20 -66 -53 -105 -24 -29 -82 -71 -82 -59 0 4 -7 0 -16 -7
-27 -22 -141 -17 -190 9 -39 20 -97 72 -100 90 -5 25 -18 52 -25 52 -4 0 -6 8
-4 18 2 10 0 24 -4 31 -10 15 6 106 24 141 16 30 75 97 75 85 0 -4 8 -1 19 9
10 9 28 19 41 21 12 2 25 7 29 10 14 14 118 1 158 -20z"/>
<path d="M2831 3493 c-28 -14 -51 -28 -51 -32 0 -4 -8 -16 -18 -27 -19 -20
-48 -97 -47 -124 3 -64 37 -141 72 -163 6 -4 19 -15 28 -23 8 -9 23 -17 33
-19 9 -2 17 -4 17 -5 0 -1 11 -4 24 -6 14 -2 26 -6 28 -8 2 -2 21 0 41 5 20 5
45 11 54 14 22 5 78 46 78 57 0 5 6 6 13 2 6 -4 9 -4 5 1 -9 9 11 37 21 31 3
-2 6 6 7 17 1 12 2 45 4 72 2 28 -1 59 -5 69 -7 15 -5 17 6 11 12 -8 12 -6 1
8 -8 9 -10 22 -6 28 4 7 3 9 -4 5 -6 -4 -16 4 -23 16 -16 29 -35 48 -48 48 -6
0 -11 4 -11 9 0 15 -56 33 -113 35 -41 2 -67 -3 -106 -21z m142 -20 c42 -5
113 -67 122 -106 12 -52 12 -94 -2 -127 -15 -38 -75 -98 -92 -92 -6 2 -11 -2
-11 -8 0 -8 -16 -10 -52 -7 -70 6 -82 10 -102 30 -10 9 -22 17 -27 17 -6 0 -8
4 -5 9 3 5 -1 12 -9 15 -34 13 -48 110 -24 168 34 81 100 115 202 101z"/>
<path d="M2920 3418 c-7 -15 -16 -25 -21 -23 -4 3 -5 -3 -2 -14 6 -25 -13 -35
-62 -33 -22 1 -47 -2 -55 -8 -13 -8 -13 -10 3 -10 9 0 17 -4 17 -8 0 -5 12
-15 26 -22 23 -13 25 -19 20 -57 -3 -24 -8 -48 -12 -54 -8 -14 31 -3 63 17 31
20 48 18 92 -11 l40 -24 -3 22 c-1 13 -6 28 -10 35 -4 7 -4 17 -1 22 3 6 1 10
-4 10 -7 0 -7 7 1 20 7 11 16 20 20 20 8 0 48 37 48 44 0 2 -6 4 -12 3 -82 -3
-92 2 -114 51 l-21 47 -13 -27z"/>
<path d="M1470 3522 c-14 -2 -28 -9 -31 -14 -4 -6 -7 -137 -9 -292 -1 -154 -2
-303 -3 -331 l-2 -50 -335 -3 c-187 -1 -338 -6 -343 -11 -6 -6 -10 -231 -10
-541 -1 -454 1 -533 13 -541 8 -5 134 -9 279 -9 l263 0 87 47 c47 25 104 56
126 67 22 12 42 24 43 29 2 4 8 7 13 7 13 0 192 101 200 113 3 5 10 8 15 8 19
-2 44 11 44 21 0 6 3 9 6 5 3 -3 24 5 45 18 21 14 64 38 96 53 59 30 296 160
378 207 25 15 45 23 45 18 0 -4 4 -3 8 3 4 6 26 21 48 32 53 27 55 58 4 77
-36 13 -147 48 -165 51 -17 3 -199 55 -215 61 -8 3 -22 7 -30 8 -24 4 -133 35
-150 42 -8 3 -19 7 -25 8 -58 14 -137 74 -150 115 -20 64 45 157 155 218 46
26 255 122 263 121 2 -1 21 7 124 50 39 17 76 31 82 31 6 0 11 5 11 10 0 6 7
10 16 10 8 0 40 11 70 25 30 14 58 25 63 25 5 0 11 6 13 13 7 21 2 286 -6 294
-10 10 -977 10 -983 0 -3 -4 -10 -4 -16 0 -7 5 -23 7 -37 5z"/>
<path d="M2470 3015 c-14 -8 -54 -26 -90 -41 -70 -28 -76 -31 -164 -69 -32
-14 -65 -25 -72 -25 -8 0 -14 -4 -14 -8 0 -6 -50 -30 -80 -37 -22 -6 -68 -29
-82 -42 -13 -12 -14 -18 -5 -27 9 -9 309 -99 406 -121 9 -2 52 -14 96 -25 44
-12 96 -25 116 -29 43 -9 115 -44 147 -71 35 -29 46 -109 19 -145 -39 -54 -56
-70 -103 -100 -30 -19 -59 -35 -64 -35 -6 0 -10 -4 -10 -10 0 -5 -7 -10 -15
-10 -8 0 -15 -5 -15 -12 0 -6 -3 -8 -7 -5 -3 4 -11 3 -17 -2 -6 -5 -38 -24
-71 -42 -33 -18 -82 -45 -110 -61 -27 -15 -88 -47 -135 -70 -47 -24 -87 -46
-90 -49 -3 -3 -43 -26 -90 -51 -47 -25 -103 -56 -125 -68 -60 -34 -110 -62
-210 -115 -49 -27 -92 -51 -95 -54 -3 -3 -25 -16 -50 -29 -25 -12 -59 -31 -77
-41 l-31 -20 -2 -163 c-3 -290 -2 -377 4 -386 6 -10 57 -13 166 -11 30 1 74 1
98 0 23 -1 48 -1 55 -2 6 0 168 1 359 2 190 1 350 -1 356 -4 5 -4 17 0 28 7
17 13 18 34 19 347 l0 334 327 1 c180 1 337 4 350 7 l24 6 1 423 c1 364 2 536
3 636 0 14 -6 22 -18 23 -9 1 -161 2 -337 4 -176 1 -327 3 -335 4 -13 1 -15
16 -14 88 2 118 0 124 -46 98z"/>
<path d="M974 1632 c-79 -46 -104 -65 -104 -79 0 -12 2 -12 16 1 8 9 20 14 25
11 5 -4 9 1 9 9 0 9 9 16 20 16 11 0 19 6 18 13 -4 19 200 13 214 -8 5 -7 8
-6 8 2 0 13 37 6 47 -10 3 -6 1 -7 -5 -3 -7 4 -12 3 -12 -2 0 -5 -12 -15 -27
-23 -29 -14 -43 -24 -68 -47 -8 -7 -15 -11 -15 -7 0 3 -15 -4 -32 -17 -18 -13
-37 -23 -41 -23 -4 0 -11 -5 -15 -11 -20 -29 -117 -76 -164 -78 -27 -2 -50 0
-53 4 -2 4 -35 6 -73 6 -62 -1 -68 1 -64 17 3 10 15 23 28 27 13 5 32 18 44
30 11 11 20 18 20 15 0 -3 25 11 55 31 30 20 55 41 55 46 0 10 -60 -23 -91
-49 -8 -7 -21 -13 -27 -13 -7 0 -12 -4 -12 -9 0 -5 -10 -13 -22 -17 -13 -4
-25 -9 -28 -13 -8 -10 -43 -31 -62 -37 -20 -7 -31 -30 -15 -31 42 -3 136 -15
157 -20 14 -3 35 -7 48 -8 31 -3 37 -11 18 -30 -23 -23 0 -46 33 -34 19 8 22
7 17 -7 -3 -9 -9 -28 -12 -42 -4 -15 -11 -33 -17 -39 -5 -7 -6 -13 -2 -13 4 0
2 -7 -5 -15 -6 -8 -9 -18 -6 -24 3 -5 2 -11 -4 -13 -6 -2 -12 -14 -15 -26 -2
-13 -7 -32 -10 -43 -4 -13 -2 -19 9 -19 9 0 16 5 16 10 0 6 5 10 10 10 12 0
92 51 102 65 5 7 8 7 8 0 0 -7 3 -7 8 0 4 6 20 17 36 26 16 9 31 24 32 33 3
20 -15 21 -22 1 -4 -8 -10 -12 -15 -9 -5 3 -9 1 -9 -4 0 -5 -23 -21 -50 -36
-30 -16 -48 -32 -44 -38 5 -7 1 -9 -9 -5 -10 4 -17 1 -18 -6 0 -7 -4 -3 -8 8
-5 12 -3 30 6 48 7 15 11 32 8 37 -3 6 -1 10 5 10 6 0 8 5 5 10 -3 6 -1 10 4
10 6 0 10 3 10 8 -4 18 15 72 30 87 22 22 120 85 132 85 6 0 7 5 3 12 -5 8 -2
9 9 5 10 -3 17 -2 17 3 0 5 19 19 43 31 23 12 44 24 47 28 3 3 24 16 46 29 38
20 42 20 48 6 8 -22 17 -13 33 34 16 46 2 64 -54 67 -21 1 -38 3 -38 4 0 4
-87 12 -140 14 -27 1 -52 5 -55 9 -3 4 -19 0 -36 -10z"/>
<path d="M966 1569 c-13 -10 -26 -15 -30 -12 -3 3 -6 1 -6 -6 0 -7 -4 -10 -9
-7 -5 3 -12 -1 -15 -10 -3 -8 -10 -12 -16 -9 -5 3 -10 1 -10 -4 0 -6 -7 -11
-15 -11 -8 0 -15 -4 -15 -10 0 -5 -7 -10 -15 -10 -8 0 -15 -4 -15 -10 0 -5 -7
-10 -15 -10 -7 0 -18 -8 -24 -17 -5 -10 -13 -17 -18 -15 -4 2 -9 -3 -11 -10
-4 -22 137 -21 162 1 16 13 18 13 12 1 -5 -9 -2 -8 7 2 8 10 17 15 20 11 4 -3
7 -1 7 6 0 6 11 16 25 21 14 5 25 14 25 20 0 6 4 9 9 6 4 -3 19 3 32 14 13 11
29 23 34 28 6 4 18 11 28 15 34 13 -3 32 -64 33 -44 2 -65 -3 -83 -17z"/>
<path d="M1250 1478 c0 -13 -5 -29 -12 -36 -7 -7 -8 -12 -4 -12 5 0 3 -7 -4
-15 -7 -8 -9 -15 -5 -15 4 0 2 -6 -4 -14 -7 -8 -14 -24 -16 -36 -6 -31 -36
-62 -53 -55 -13 5 -13 3 -1 -12 11 -13 11 -15 1 -9 -8 5 -20 2 -30 -7 -9 -8
-27 -18 -40 -22 -13 -3 -19 -11 -16 -17 5 -7 1 -9 -8 -5 -11 4 -18 -1 -21 -14
-3 -10 -3 -19 -1 -19 8 0 59 34 65 43 3 5 8 8 10 6 2 -1 23 9 46 24 37 24 69
67 78 107 2 8 9 29 16 45 6 17 13 35 14 40 2 6 4 16 6 24 2 7 -2 16 -8 18 -8
3 -13 -4 -13 -19z"/>
<path d="M1175 1440 c-4 -6 -11 -8 -16 -5 -5 4 -9 1 -9 -5 0 -6 -11 -15 -25
-20 -14 -5 -25 -15 -25 -21 0 -7 -3 -9 -6 -6 -4 3 -18 -2 -32 -13 -13 -11 -28
-18 -32 -15 -4 3 -11 -2 -14 -11 -4 -9 -9 -14 -12 -11 -12 12 -74 -51 -74 -75
0 -11 -4 -16 -10 -13 -6 3 -7 -1 -4 -10 4 -8 1 -21 -4 -28 -6 -7 -7 -19 -3
-26 6 -10 20 -4 58 23 28 20 55 36 62 36 6 0 11 4 11 10 0 5 11 12 25 16 14 3
25 9 25 14 0 4 15 15 34 25 33 18 48 45 71 123 6 22 -8 31 -20 12z"/>
<path d="M121 908 c-7 -12 -8 -18 -1 -18 7 0 7 -6 0 -20 -8 -14 -8 -20 0 -20
6 0 8 -5 4 -11 -11 -18 -12 -69 -2 -69 5 0 6 -9 3 -20 -5 -14 -2 -20 9 -20 9
0 17 6 18 13 0 6 2 17 3 22 2 6 3 18 4 28 0 9 5 17 10 17 11 0 57 -43 62 -58
4 -13 49 -26 49 -14 0 4 -9 22 -21 41 -17 28 -18 35 -6 45 26 20 29 61 7 81
-22 20 -68 25 -89 10 -11 -7 -13 -7 -8 2 12 20 -29 11 -42 -9z m102 -17 c5 -1
5 -5 2 -11 -3 -5 -1 -10 4 -10 19 0 12 -26 -7 -27 -9 -1 -22 -2 -27 -3 -21 -5
-36 0 -30 10 3 6 1 10 -4 10 -8 0 -8 6 0 18 7 10 21 17 33 16 11 -1 25 -3 29
-3z"/>
<path d="M1190 919 c-30 -12 -40 -28 -35 -54 2 -11 4 -22 4 -25 1 -6 70 -34
85 -35 17 0 13 -45 -5 -50 -18 -6 -69 13 -69 27 0 4 -5 8 -11 8 -20 0 -4 -45
21 -57 14 -7 26 -9 28 -4 1 4 14 6 29 3 17 -3 24 -1 19 6 -4 6 2 8 14 5 14 -4
20 0 21 11 1 9 2 22 3 29 4 20 -14 47 -29 47 -8 0 -15 6 -15 13 0 8 -4 7 -10
-3 -7 -11 -10 -11 -10 -2 0 7 -4 10 -10 7 -5 -3 -10 -1 -10 4 0 6 -6 11 -13
11 -16 0 -19 29 -3 31 46 6 55 5 51 -2 -9 -13 14 -21 32 -10 11 6 13 11 5 11
-7 0 -11 4 -8 9 9 15 -40 31 -54 18 -10 -9 -11 -9 -6 1 8 14 9 14 -24 1z"/>
<path d="M1496 909 c-9 -39 -2 -163 9 -171 16 -12 21 -9 22 13 3 34 13 36 38
7 24 -28 45 -36 45 -19 0 5 -7 14 -15 21 -8 7 -12 16 -9 21 3 5 1 9 -4 9 -14
0 -10 33 6 50 14 13 14 15 -1 18 -9 2 -24 -4 -33 -13 -19 -18 -41 -14 -36 6
10 37 9 46 -4 63 -12 18 -13 17 -18 -5z"/>
<path d="M2859 914 c-5 -7 -9 -49 -7 -96 2 -64 6 -83 17 -83 9 0 16 11 16 28
2 33 3 34 40 40 57 9 71 20 66 50 0 4 4 7 10 7 5 0 2 13 -7 29 -10 17 -20 30
-23 29 -3 0 -8 1 -11 2 -20 8 -92 4 -101 -6z m90 -30 c15 -15 8 -42 -12 -48
-41 -11 -47 -7 -47 28 0 32 2 34 27 30 15 -3 30 -7 32 -10z"/>
<path d="M3040 915 c-10 -12 -9 -16 5 -21 23 -9 40 10 22 25 -11 9 -17 8 -27
-4z"/>
<path d="M3379 905 c-1 -16 -1 -33 0 -37 2 -13 -17 -9 -22 5 -4 8 -6 8 -6 0
-1 -6 -10 -9 -20 -6 -13 3 -25 -4 -37 -22 -19 -29 -28 -75 -14 -75 5 0 11 -9
15 -19 6 -20 55 -36 55 -18 0 6 3 7 7 4 3 -4 12 -2 20 4 10 9 13 7 13 -6 0
-13 3 -15 13 -7 15 12 18 183 3 181 -5 0 -13 5 -17 13 -6 9 -9 4 -10 -17z
m-15 -71 c23 -22 20 -61 -5 -75 -17 -9 -23 -8 -30 2 -15 24 -14 56 3 77 13 15
13 15 32 -4z"/>
<path d="M3717 916 c-9 -9 -14 -24 -12 -34 2 -15 -3 -17 -32 -14 -25 3 -38 -1
-48 -14 -19 -25 -19 -98 0 -114 14 -12 24 -13 90 -7 l29 2 1 87 c1 99 -4 117
-28 94z m-15 -91 c14 -30 -3 -75 -27 -75 -28 0 -39 55 -16 82 21 24 29 23 43
-7z"/>
<path d="M1653 905 c0 -8 6 -15 13 -15 8 0 11 6 8 15 -4 8 -9 15 -13 15 -4 0
-8 -7 -8 -15z"/>
<path d="M1904 906 c-8 -8 -8 -18 -2 -29 6 -11 5 -17 -2 -17 -6 0 -9 -4 -6 -8
3 -5 6 -27 7 -50 2 -26 10 -49 21 -59 25 -22 83 -19 110 7 12 11 18 20 14 20
-5 0 -3 6 3 14 9 11 9 15 -1 19 -7 3 -8 6 -3 6 15 1 6 101 -10 101 -13 0 -27
-35 -17 -45 10 -9 9 -44 -1 -38 -5 3 -6 -3 -3 -15 9 -29 -8 -57 -34 -59 -34
-3 -45 17 -47 82 -2 86 -2 85 -10 85 -5 -1 -13 -7 -19 -14z"/>
<path d="M899 901 c-1 -3 0 -10 1 -16 1 -5 2 -43 2 -83 -1 -51 2 -72 10 -70 6
2 13 16 15 31 8 71 11 82 21 80 6 -2 9 4 6 12 -4 8 -10 12 -15 9 -5 -3 -9 6
-9 19 0 14 -6 24 -15 24 -8 0 -16 -3 -16 -6z"/>
<path d="M1734 896 c-18 -20 -26 -54 -14 -61 6 -4 10 -17 9 -28 -4 -59 1 -75
25 -79 15 -3 27 0 30 8 3 8 -1 14 -11 14 -9 0 -13 3 -10 6 3 4 2 15 -3 25 -7
12 -7 20 0 24 6 4 8 10 5 15 -3 4 2 13 11 20 10 9 12 15 4 20 -6 4 -13 15 -14
25 -3 23 -17 28 -32 11z"/>
<path d="M2670 872 c0 -14 -32 -25 -39 -13 -8 12 -54 9 -63 -4 -5 -6 -12 -4
-18 5 -8 13 -11 12 -24 -5 -9 -13 -11 -25 -5 -37 5 -9 5 -19 1 -22 -5 -3 -8
-15 -6 -28 1 -13 3 -28 3 -35 1 -19 30 -4 30 15 -1 26 9 81 16 92 4 6 13 5 25
-2 14 -9 16 -14 7 -20 -9 -6 -9 -8 1 -8 7 0 12 -8 11 -17 -4 -41 2 -63 16 -63
15 0 19 14 17 59 -1 13 4 33 10 44 l11 21 17 -22 c11 -13 17 -36 16 -62 -2
-31 2 -40 15 -40 13 0 16 11 17 60 0 39 -5 63 -14 71 -8 6 -14 8 -14 4 0 -4
-7 -2 -15 5 -9 7 -15 8 -15 2z"/>
<path d="M3180 870 c0 -5 -14 -8 -32 -7 l-32 2 -2 -55 c-3 -61 12 -103 27 -79
5 8 9 31 9 51 0 21 7 44 17 54 16 16 18 15 32 -6 9 -13 14 -40 12 -66 -2 -37
0 -43 13 -38 9 3 17 11 17 18 5 51 3 97 -6 109 -12 16 -55 29 -55 17z"/>
<path d="M319 853 c-2 -38 0 -80 6 -99 6 -19 13 -22 63 -20 l57 2 2 61 c2 36
-2 65 -8 68 -16 10 -21 0 -24 -49 -2 -24 -6 -49 -9 -55 -10 -15 -46 -14 -47 2
-1 6 -3 28 -4 47 -2 19 -3 40 -4 46 -2 15 -31 13 -32 -3z"/>
<path d="M501 861 c-8 -5 -13 -31 -14 -67 -1 -46 1 -59 13 -59 8 0 16 6 16 13
1 6 2 13 4 15 1 1 4 23 6 49 5 48 -3 62 -25 49z"/>
<path d="M543 855 c0 -9 6 -14 13 -11 16 6 23 -12 20 -56 0 -19 4 -40 11 -47
16 -15 24 0 25 49 0 29 6 43 19 50 23 13 32 13 24 0 -3 -5 -2 -10 4 -10 6 0
10 -20 9 -45 -1 -50 8 -68 22 -45 9 15 8 106 -2 115 -12 12 -52 14 -59 3 -4
-6 -14 -8 -25 -3 -37 16 -61 16 -61 0z"/>
<path d="M757 856 c-4 -10 -7 -19 -7 -21 0 -6 29 1 36 8 14 14 24 6 24 -19 0
-14 -4 -23 -9 -19 -13 7 -59 -15 -65 -32 -10 -25 20 -44 62 -41 53 5 58 11 56
60 -2 57 0 53 -30 67 -19 8 -30 9 -39 1 -9 -8 -14 -7 -17 2 -3 8 -7 6 -11 -6z
m63 -80 c-1 -36 -43 -43 -48 -7 -2 15 0 21 7 17 6 -4 11 -3 11 3 0 6 7 8 15 5
8 -4 15 -11 15 -18z"/>
<path d="M960 866 c0 -2 8 -12 17 -21 10 -11 17 -34 17 -63 1 -30 6 -47 15
-50 10 -3 12 0 8 12 -4 11 -3 15 4 11 16 -10 6 28 -11 43 -13 10 -12 11 4 6
16 -6 17 -4 8 13 -6 11 -8 23 -5 27 3 3 1 7 -5 7 -21 2 -27 4 -39 12 -7 5 -13
6 -13 3z"/>
<path d="M1361 856 c-15 -8 -18 -15 -11 -26 8 -13 14 -8 12 10 -1 12 38 5 43
-8 4 -10 0 -12 -11 -8 -15 6 -15 4 0 -18 22 -34 20 -56 -4 -56 -13 0 -20 7
-20 20 0 11 5 20 11 20 5 0 8 4 4 10 -9 14 -55 -10 -55 -29 0 -31 15 -39 67
-38 l53 1 -2 53 c-3 73 -33 97 -87 69z"/>
<path d="M1648 852 c-1 -9 -1 -42 2 -73 5 -51 7 -55 25 -48 11 4 14 8 7 8 -7
1 -10 6 -6 13 9 14 10 76 1 85 -4 3 -3 11 3 17 6 8 3 12 -10 13 -10 1 -20 -6
-22 -15z"/>
<path d="M2105 859 c-12 -33 -12 -109 1 -120 21 -17 29 -4 28 48 -1 42 2 51
22 60 18 8 21 8 17 -3 -3 -8 -1 -14 5 -14 6 0 9 -17 7 -39 -2 -23 3 -47 11
-58 7 -10 14 -13 15 -8 5 33 10 63 13 85 5 39 5 40 17 40 17 0 34 -23 33 -45
0 -11 5 -26 10 -34 9 -11 8 -13 -2 -7 -10 6 -13 3 -10 -10 2 -10 10 -20 19
-22 20 -4 24 55 6 77 -10 12 -9 13 1 7 9 -6 12 -3 10 10 -5 33 -26 47 -56 38
-44 -12 -52 -13 -52 -4 0 10 -43 7 -52 -4 -4 -6 -13 -4 -22 3 -13 11 -17 11
-21 0z"/>
<path d="M2362 862 c-12 -8 -17 -61 -9 -92 11 -42 18 -48 46 -40 16 4 34 4 41
0 25 -15 36 0 35 48 0 26 3 53 8 60 6 8 5 12 -2 12 -7 0 -9 5 -6 10 3 6 3 10
-2 10 -20 -1 -29 -18 -28 -52 1 -21 -2 -38 -7 -38 -4 0 -7 -6 -5 -12 1 -7 -8
-14 -20 -16 -18 -3 -23 2 -24 20 -1 13 -1 26 0 31 0 4 -4 7 -10 7 -8 0 -7 6 2
17 11 13 11 17 1 20 -6 3 -10 9 -6 14 6 11 3 11 -14 1z"/>
<path d="M3039 860 c-7 -30 -2 -113 8 -126 11 -15 13 -13 19 11 4 14 7 48 8
75 1 40 -2 48 -16 47 -10 -1 -19 -4 -19 -7z"/>
<path d="M3470 861 c0 -5 -2 -16 -5 -24 -4 -8 0 -14 10 -14 8 0 15 4 15 9 0 4
11 8 25 8 22 0 24 -2 13 -20 -9 -14 -14 -16 -20 -7 -6 9 -8 9 -8 -1 0 -7 -4
-11 -8 -8 -14 8 -30 -8 -37 -37 -6 -22 -3 -28 16 -36 13 -4 33 -5 44 -1 11 4
29 4 40 0 19 -7 20 -3 20 54 0 50 -3 63 -20 73 -24 14 -85 17 -85 4z m63 -91
c-6 -22 -43 -28 -43 -7 0 18 10 27 31 27 12 0 16 -6 12 -20z"/>
<path d="M1689 638 c-4 -153 -3 -161 14 -164 9 -1 17 1 18 4 0 4 2 26 3 48 4
51 11 64 38 64 15 0 19 -5 15 -20 -3 -11 -2 -22 3 -25 4 -3 6 -20 3 -38 -3
-26 0 -34 11 -34 19 0 29 30 28 77 -2 45 -34 73 -72 65 -25 -5 -27 -3 -26 22
1 19 -4 29 -16 31 -14 3 -18 -4 -19 -30z"/>
<path d="M2252 573 c2 -66 7 -98 15 -101 7 -2 15 3 18 12 17 53 15 52 37 18
20 -32 41 -41 53 -23 3 5 1 12 -5 16 -6 4 -8 10 -6 14 3 4 -4 13 -14 21 -18
13 -18 14 1 52 23 44 9 51 -35 17 l-26 -20 -2 28 c0 15 -1 36 0 46 1 11 -5 17
-18 17 -20 0 -21 -5 -18 -97z"/>
<path d="M2407 663 c-3 -5 -2 -15 3 -22 10 -17 43 -6 38 12 -6 15 -34 22 -41
10z"/>
<path d="M2659 668 c-1 -2 -3 -41 -4 -88 -3 -89 6 -120 31 -99 8 6 12 15 9 19
-3 5 0 12 6 16 6 3 23 -6 37 -21 24 -26 26 -27 32 -9 5 12 0 28 -12 43 -17 22
-17 26 -3 47 17 27 19 38 5 29 -5 -3 -10 -1 -10 5 0 7 -7 5 -16 -4 -19 -19
-33 -21 -36 -3 0 6 -2 17 -3 22 -2 6 -3 18 -4 28 -1 13 -27 25 -32 15z"/>
<path d="M2971 653 c0 -10 -2 -48 -4 -85 -3 -71 1 -92 20 -95 17 -4 21 16 19
107 -1 71 -4 85 -18 88 -11 2 -17 -3 -17 -15z"/>
<path d="M2484 636 c-16 -23 -18 -52 -5 -61 5 -3 8 -20 7 -38 -4 -43 10 -67
39 -67 25 0 36 25 14 32 -6 2 -11 21 -11 43 0 22 5 41 11 43 6 2 11 10 11 18
0 9 -4 12 -10 9 -6 -3 -10 4 -10 18 0 30 -26 32 -46 3z"/>
<path d="M3250 616 c-8 -6 -22 -20 -30 -30 -14 -19 -13 -19 28 -13 26 5 42 3
42 -3 0 -10 -14 -14 -38 -11 -18 3 -41 -29 -42 -56 0 -26 21 -33 87 -30 l41 2
0 58 c-1 31 -6 61 -12 66 -25 21 -62 29 -76 17z m40 -101 c0 -8 -7 -15 -15
-15 -8 0 -15 7 -15 15 0 8 7 15 15 15 8 0 15 -7 15 -15z"/>
<path d="M1006 595 c-9 -33 -7 -113 3 -120 11 -6 25 12 28 40 1 11 4 29 7 40
2 11 5 24 5 28 1 5 5 6 9 3 11 -7 38 11 29 20 -4 4 -23 8 -41 9 -27 0 -36 -4
-40 -20z"/>
<path d="M1281 596 c-8 -19 -5 -116 3 -123 2 -3 15 1 28 8 12 7 18 14 12 16
-14 5 -8 74 8 84 21 13 34 -8 35 -56 1 -52 4 -58 25 -50 11 4 15 20 14 53 -1
43 1 47 25 50 24 3 25 1 24 -48 -1 -53 4 -64 27 -55 16 6 17 110 0 127 -15 15
-75 21 -66 7 4 -8 -1 -9 -17 -3 -13 4 -44 8 -68 8 -34 1 -45 -3 -50 -18z"/>
<path d="M1560 611 c0 -6 -5 -10 -11 -8 -6 1 -13 -3 -16 -9 -6 -16 27 -26 43
-13 14 11 38 3 29 -10 -2 -5 -18 -11 -34 -14 -37 -8 -56 -39 -41 -67 12 -22
49 -27 68 -8 7 7 12 8 12 2 0 -5 9 -10 20 -11 18 -2 20 4 20 55 0 31 -6 64
-13 72 -14 18 -77 27 -77 11z m44 -96 c-4 -8 -12 -15 -19 -15 -7 0 -15 7 -19
15 -4 11 1 15 19 15 18 0 23 -4 19 -15z"/>
<path d="M1958 613 c-25 -6 -34 -49 -15 -67 8 -8 27 -17 43 -19 15 -2 30 -9
32 -17 3 -7 0 -10 -7 -6 -6 4 -11 2 -11 -4 0 -7 -11 -5 -29 4 -33 18 -45 11
-30 -17 9 -16 18 -19 56 -14 83 9 84 77 1 94 -26 5 -28 7 -13 16 12 6 20 6 24
-2 7 -11 41 -6 41 6 0 21 -51 36 -92 26z"/>
<path d="M2109 609 c-7 -4 -14 -14 -15 -22 -2 -14 2 -15 41 -7 20 4 35 0 35
-11 0 -6 -10 -9 -22 -7 -40 6 -76 -44 -54 -74 17 -23 116 -22 117 1 4 52 -2
106 -11 115 -13 13 -73 17 -91 5z m54 -104 c-9 -15 -11 -15 -23 0 -12 14 -12
18 1 25 19 12 33 -4 22 -25z"/>
<path d="M2409 603 c0 -10 -2 -39 -3 -65 -3 -53 5 -73 27 -65 11 4 14 22 13
74 -1 56 -4 68 -18 71 -12 2 -18 -3 -19 -15z"/>
<path d="M2839 613 c-23 -6 -51 -67 -36 -82 6 -6 8 -11 3 -11 -4 0 0 -10 8
-22 19 -26 51 -33 88 -17 29 12 38 29 16 29 -8 0 -7 5 3 16 18 17 14 57 -6 74
-15 13 -53 19 -76 13z m39 -47 c-13 -14 -28 -12 -28 5 0 5 9 9 20 9 17 0 19
-2 8 -14z m22 -43 c0 -3 -7 -2 -16 1 -14 5 -15 4 -4 -9 10 -12 10 -15 -3 -15
-21 0 -33 20 -17 30 13 8 40 3 40 -7z"/>
<path d="M3048 607 c-8 -23 1 -109 13 -123 11 -14 75 -17 107 -6 15 5 17 128
1 137 -17 11 -35 -24 -33 -65 2 -62 -43 -64 -47 -2 -1 12 -3 27 -4 32 -1 6 -3
14 -4 19 -2 14 -29 21 -33 8z"/>
<path d="M3384 612 c-12 -9 -17 -43 -15 -104 1 -26 5 -36 16 -34 21 3 23 7 29
55 5 44 24 70 37 50 3 -6 9 -1 12 10 3 12 0 21 -6 22 -7 0 -24 2 -38 4 -14 2
-30 0 -35 -3z"/>
<path d="M3499 602 c-18 -12 -24 -27 -25 -54 -1 -21 2 -38 7 -38 5 0 9 -6 9
-14 0 -8 8 -17 17 -20 15 -6 15 -9 3 -16 -8 -5 -18 -6 -23 -3 -5 3 -4 -4 2
-15 12 -22 64 -34 97 -21 12 4 25 20 29 36 7 27 7 144 0 152 -13 12 -95 7
-116 -7z m72 -25 c0 -7 2 -20 4 -29 5 -25 -22 -45 -43 -31 -18 11 -20 27 -8
53 8 19 46 24 47 7z m-1 -112 c0 -8 -9 -15 -20 -15 -17 0 -19 2 -8 15 17 19
28 19 28 0z"/>
<path d="M3673 607 c-34 -19 -14 -41 28 -32 25 5 31 4 23 -4 -6 -6 -20 -13
-32 -16 -44 -8 -61 -49 -31 -72 17 -13 61 -14 53 -1 -6 10 10 11 20 1 12 -12
34 -12 39 0 2 7 3 28 1 47 -3 19 -5 42 -6 50 -3 35 -54 49 -95 27z m57 -85 c0
-14 -11 -21 -26 -15 -21 8 -17 23 6 23 11 0 20 -4 20 -8z"/>
<path d="M1110 559 c0 -75 11 -89 68 -87 26 1 52 5 57 9 6 4 10 34 10 66 -1
51 -4 58 -21 61 -18 3 -21 -2 -19 -38 1 -22 -2 -40 -7 -40 -5 0 -7 -4 -3 -9 3
-6 -3 -15 -14 -20 -23 -13 -29 -1 -33 67 -1 33 -6 42 -20 42 -15 0 -18 -8 -18
-51z"/>
</g>
</svg>
